<?xml version="1.0" encoding="UTF-8" standalone="no"?>
<svg width="257.528mm" height="35.9833mm"
 viewBox="0 0 730 102"
 xmlns="http://www.w3.org/2000/svg" xmlns:xlink="http://www.w3.org/1999/xlink"  version="1.2" baseProfile="tiny">
<title>Qt SVG Document</title>
<desc>Generated with Qt</desc>
<defs>
</defs>
<g fill="none" stroke="black" stroke-width="1" fill-rule="evenodd" stroke-linecap="square" stroke-linejoin="bevel" >

<g fill="#ffffff" fill-opacity="1" stroke="none" transform="matrix(1,0,0,1,0,0)"
font-family="Courier New" font-size="16" font-weight="400" font-style="normal" 
>
<rect x="0" y="0" width="730" height="102"/>
</g>

<g fill="none" stroke="#000000" stroke-opacity="1" stroke-width="1" stroke-linecap="square" stroke-linejoin="bevel" transform="matrix(1,0,0,1,0,0)"
font-family="Courier New" font-size="16" font-weight="400" font-style="normal" 
>
</g>

<g fill="none" stroke="#000000" stroke-opacity="1" stroke-width="1" stroke-linecap="square" stroke-linejoin="bevel" transform="matrix(1,0,0,1,0,0)"
font-family="Courier New" font-size="16" font-weight="400" font-style="normal" 
>
</g>

<g fill="none" stroke="#000000" stroke-opacity="1" stroke-width="1" stroke-linecap="square" stroke-linejoin="bevel" transform="matrix(0.999931,0,0,0.999931,204.036,50.9965)"
font-family="Courier New" font-size="16" font-weight="400" font-style="normal" 
>
</g>

<g fill="none" stroke="#000000" stroke-opacity="1" stroke-width="1" stroke-linecap="square" stroke-linejoin="bevel" transform="matrix(0.999931,0,0,0.999931,204.036,50.9965)"
font-family="Courier New" font-size="16" font-weight="400" font-style="normal" 
>
</g>

<g fill="none" stroke="#000000" stroke-opacity="1" stroke-width="1" stroke-linecap="square" stroke-linejoin="bevel" transform="matrix(0.999931,0,0,0.999931,191.537,50.9965)"
font-family="Courier New" font-size="16" font-weight="400" font-style="normal" 
>
</g>

<g fill="none" stroke="#000000" stroke-opacity="1" stroke-width="2" stroke-linecap="square" stroke-linejoin="bevel" transform="matrix(0.999931,0,0,0.999931,191.537,50.9965)"
font-family="Courier New" font-size="16" font-weight="400" font-style="normal" 
>
<polyline fill="none" vector-effect="none" points="-112.5,-23 112.5,-23 " />
<path vector-effect="none" fill-rule="evenodd" d="M-112.5,-40 C-112.5,-45.5228 -108.023,-50 -102.5,-50 L102.5,-50 C108.023,-50 112.5,-45.5228 112.5,-40 L112.5,40 C112.5,45.5228 108.023,50 102.5,50 L-102.5,50 C-108.023,50 -112.5,45.5228 -112.5,40 L-112.5,-40"/>
</g>

<g fill="none" stroke="#000000" stroke-opacity="1" stroke-width="1" stroke-linecap="square" stroke-linejoin="bevel" transform="matrix(0.999931,0,0,0.999931,191.537,50.9965)"
font-family="Courier New" font-size="16" font-weight="400" font-style="normal" 
>
</g>

<g fill="none" stroke="#000000" stroke-opacity="1" stroke-width="1" stroke-linecap="square" stroke-linejoin="bevel" transform="matrix(0.999931,0,0,0.999931,79.0448,0.999931)"
font-family="Courier New" font-size="16" font-weight="400" font-style="normal" 
>
</g>

<g fill="none" stroke="#000000" stroke-opacity="1" stroke-width="1" stroke-linecap="square" stroke-linejoin="bevel" transform="matrix(0.999931,0,0,0.999931,79.0448,0.999931)"
font-family="Courier New" font-size="16" font-weight="700" font-style="normal" 
>
</g>

<g fill="none" stroke="#000000" stroke-opacity="1" stroke-width="1" stroke-linecap="square" stroke-linejoin="bevel" transform="matrix(0.999931,0,0,0.999931,79.0448,0.999931)"
font-family="Courier New" font-size="16" font-weight="700" font-style="normal" 
>
</g>

<g fill="none" stroke="#000000" stroke-opacity="1" stroke-width="1" stroke-linecap="square" stroke-linejoin="bevel" transform="matrix(0.999931,0,0,0.999931,79.0448,0.999931)"
font-family="Courier New" font-size="16" font-weight="700" font-style="normal" 
>
</g>

<g fill="none" stroke="#000000" stroke-opacity="1" stroke-width="1" stroke-linecap="square" stroke-linejoin="bevel" transform="matrix(0.999931,0,0,0.999931,79.0448,0.999931)"
font-family="Courier New" font-size="16" font-weight="700" font-style="normal" 
>
<text fill="#000000" fill-opacity="1" stroke="none" xml:space="preserve" x="74.125" y="18" font-family="Courier New" font-size="16" font-weight="700" font-style="normal" 
 >Выключен</text>
</g>

<g fill="none" stroke="#000000" stroke-opacity="1" stroke-width="1" stroke-linecap="square" stroke-linejoin="bevel" transform="matrix(0.999931,0,0,0.999931,79.0448,0.999931)"
font-family="Courier New" font-size="16" font-weight="700" font-style="normal" 
>
</g>

<g fill="none" stroke="#000000" stroke-opacity="1" stroke-width="1" stroke-linecap="square" stroke-linejoin="bevel" transform="matrix(1,0,0,1,0,0)"
font-family="Courier New" font-size="16" font-weight="700" font-style="normal" 
>
</g>

<g fill="none" stroke="#000000" stroke-opacity="1" stroke-width="1" stroke-linecap="square" stroke-linejoin="bevel" transform="matrix(0.999931,0,0,0.999931,79.0448,0.999931)"
font-family="Courier New" font-size="16" font-weight="700" font-style="normal" 
>
</g>

<g fill="none" stroke="#000000" stroke-opacity="1" stroke-width="1" stroke-linecap="square" stroke-linejoin="bevel" transform="matrix(0.999931,0,0,0.999931,79.0448,0.999931)"
font-family="Courier New" font-size="16" font-weight="700" font-style="normal" 
>
</g>

<g fill="none" stroke="#000000" stroke-opacity="1" stroke-width="1" stroke-linecap="square" stroke-linejoin="bevel" transform="matrix(0.999931,0,0,0.999931,79.0448,0.999931)"
font-family="Courier New" font-size="16" font-weight="400" font-style="normal" 
>
</g>

<g fill="none" stroke="#000000" stroke-opacity="1" stroke-width="1" stroke-linecap="square" stroke-linejoin="bevel" transform="matrix(0.999931,0,0,0.999931,94.0437,27.9981)"
font-family="Courier New" font-size="16" font-weight="400" font-style="normal" 
>
</g>

<g fill="none" stroke="#000000" stroke-opacity="1" stroke-width="1" stroke-linecap="square" stroke-linejoin="bevel" transform="matrix(0.999931,0,0,0.999931,94.0437,27.9981)"
font-family="Courier New" font-size="16" font-weight="400" font-style="normal" 
>
</g>

<g fill="none" stroke="#000000" stroke-opacity="1" stroke-width="1" stroke-linecap="square" stroke-linejoin="bevel" transform="matrix(0.999931,0,0,0.999931,94.0437,27.9981)"
font-family="Courier New" font-size="16" font-weight="400" font-style="normal" 
>
</g>

<g fill="none" stroke="#000000" stroke-opacity="1" stroke-width="1" stroke-linecap="square" stroke-linejoin="bevel" transform="matrix(0.999931,0,0,0.999931,94.0437,27.9981)"
font-family="Courier New" font-size="16" font-weight="400" font-style="normal" 
>
</g>

<g fill="none" stroke="#000000" stroke-opacity="1" stroke-width="1" stroke-linecap="square" stroke-linejoin="bevel" transform="matrix(0.999931,0,0,0.999931,94.0437,27.9981)"
font-family="Courier New" font-size="16" font-weight="400" font-style="normal" 
>
<text fill="#000000" fill-opacity="1" stroke="none" xml:space="preserve" x="4" y="18" font-family="Courier New" font-size="16" font-weight="700" font-style="normal" 
 >entry/</text>
</g>

<g fill="none" stroke="#000000" stroke-opacity="1" stroke-width="1" stroke-linecap="square" stroke-linejoin="bevel" transform="matrix(0.999931,0,0,0.999931,94.0437,27.9981)"
font-family="Courier New" font-size="16" font-weight="400" font-style="normal" 
>
<text fill="#000000" fill-opacity="1" stroke="none" xml:space="preserve" x="4" y="35" font-family="Courier New" font-size="16" font-weight="400" font-style="normal" 
 >напряжение_</text>
</g>

<g fill="none" stroke="#000000" stroke-opacity="1" stroke-width="1" stroke-linecap="square" stroke-linejoin="bevel" transform="matrix(0.999931,0,0,0.999931,94.0437,27.9981)"
font-family="Courier New" font-size="16" font-weight="400" font-style="normal" 
>
<text fill="#000000" fill-opacity="1" stroke="none" xml:space="preserve" x="109.531" y="35" font-family="Courier New" font-size="16" font-weight="400" font-style="normal" 
 >LOW</text>
</g>

<g fill="none" stroke="#000000" stroke-opacity="1" stroke-width="1" stroke-linecap="square" stroke-linejoin="bevel" transform="matrix(0.999931,0,0,0.999931,94.0437,27.9981)"
font-family="Courier New" font-size="16" font-weight="400" font-style="normal" 
>
</g>

<g fill="none" stroke="#000000" stroke-opacity="1" stroke-width="1" stroke-linecap="square" stroke-linejoin="bevel" transform="matrix(1,0,0,1,0,0)"
font-family="Courier New" font-size="16" font-weight="400" font-style="normal" 
>
</g>

<g fill="none" stroke="#000000" stroke-opacity="1" stroke-width="1" stroke-linecap="square" stroke-linejoin="bevel" transform="matrix(0.999931,0,0,0.999931,94.0437,27.9981)"
font-family="Courier New" font-size="16" font-weight="400" font-style="normal" 
>
</g>

<g fill="none" stroke="#000000" stroke-opacity="1" stroke-width="1" stroke-linecap="square" stroke-linejoin="bevel" transform="matrix(0.999931,0,0,0.999931,94.0437,27.9981)"
font-family="Courier New" font-size="16" font-weight="400" font-style="normal" 
>
</g>

<g fill="none" stroke="#000000" stroke-opacity="1" stroke-width="1" stroke-linecap="square" stroke-linejoin="bevel" transform="matrix(0.999931,0,0,0.999931,94.0437,27.9981)"
font-family="Courier New" font-size="16" font-weight="400" font-style="normal" 
>
</g>

<g fill="none" stroke="#000000" stroke-opacity="1" stroke-width="1" stroke-linecap="square" stroke-linejoin="bevel" transform="matrix(0.999931,0,0,0.999931,629.007,50.9965)"
font-family="Courier New" font-size="16" font-weight="400" font-style="normal" 
>
</g>

<g fill="none" stroke="#000000" stroke-opacity="1" stroke-width="2" stroke-linecap="square" stroke-linejoin="bevel" transform="matrix(0.999931,0,0,0.999931,629.007,50.9965)"
font-family="Courier New" font-size="16" font-weight="400" font-style="normal" 
>
<polyline fill="none" vector-effect="none" points="-100,-23 100,-23 " />
<path vector-effect="none" fill-rule="evenodd" d="M-100,-40 C-100,-45.5228 -95.5228,-50 -90,-50 L90,-50 C95.5228,-50 100,-45.5228 100,-40 L100,40 C100,45.5228 95.5228,50 90,50 L-90,50 C-95.5228,50 -100,45.5228 -100,40 L-100,-40"/>
</g>

<g fill="none" stroke="#000000" stroke-opacity="1" stroke-width="1" stroke-linecap="square" stroke-linejoin="bevel" transform="matrix(0.999931,0,0,0.999931,629.007,50.9965)"
font-family="Courier New" font-size="16" font-weight="400" font-style="normal" 
>
</g>

<g fill="none" stroke="#000000" stroke-opacity="1" stroke-width="1" stroke-linecap="square" stroke-linejoin="bevel" transform="matrix(0.999931,0,0,0.999931,529.014,0.999931)"
font-family="Courier New" font-size="16" font-weight="400" font-style="normal" 
>
</g>

<g fill="none" stroke="#000000" stroke-opacity="1" stroke-width="1" stroke-linecap="square" stroke-linejoin="bevel" transform="matrix(0.999931,0,0,0.999931,529.014,0.999931)"
font-family="Courier New" font-size="16" font-weight="700" font-style="normal" 
>
</g>

<g fill="none" stroke="#000000" stroke-opacity="1" stroke-width="1" stroke-linecap="square" stroke-linejoin="bevel" transform="matrix(0.999931,0,0,0.999931,529.014,0.999931)"
font-family="Courier New" font-size="16" font-weight="700" font-style="normal" 
>
</g>

<g fill="none" stroke="#000000" stroke-opacity="1" stroke-width="1" stroke-linecap="square" stroke-linejoin="bevel" transform="matrix(0.999931,0,0,0.999931,529.014,0.999931)"
font-family="Courier New" font-size="16" font-weight="700" font-style="normal" 
>
</g>

<g fill="none" stroke="#000000" stroke-opacity="1" stroke-width="1" stroke-linecap="square" stroke-linejoin="bevel" transform="matrix(0.999931,0,0,0.999931,529.014,0.999931)"
font-family="Courier New" font-size="16" font-weight="700" font-style="normal" 
>
<text fill="#000000" fill-opacity="1" stroke="none" xml:space="preserve" x="66.4219" y="18" font-family="Courier New" font-size="16" font-weight="700" font-style="normal" 
 >Включен</text>
</g>

<g fill="none" stroke="#000000" stroke-opacity="1" stroke-width="1" stroke-linecap="square" stroke-linejoin="bevel" transform="matrix(0.999931,0,0,0.999931,529.014,0.999931)"
font-family="Courier New" font-size="16" font-weight="700" font-style="normal" 
>
</g>

<g fill="none" stroke="#000000" stroke-opacity="1" stroke-width="1" stroke-linecap="square" stroke-linejoin="bevel" transform="matrix(1,0,0,1,0,0)"
font-family="Courier New" font-size="16" font-weight="700" font-style="normal" 
>
</g>

<g fill="none" stroke="#000000" stroke-opacity="1" stroke-width="1" stroke-linecap="square" stroke-linejoin="bevel" transform="matrix(0.999931,0,0,0.999931,529.014,0.999931)"
font-family="Courier New" font-size="16" font-weight="700" font-style="normal" 
>
</g>

<g fill="none" stroke="#000000" stroke-opacity="1" stroke-width="1" stroke-linecap="square" stroke-linejoin="bevel" transform="matrix(0.999931,0,0,0.999931,529.014,0.999931)"
font-family="Courier New" font-size="16" font-weight="700" font-style="normal" 
>
</g>

<g fill="none" stroke="#000000" stroke-opacity="1" stroke-width="1" stroke-linecap="square" stroke-linejoin="bevel" transform="matrix(0.999931,0,0,0.999931,529.014,0.999931)"
font-family="Courier New" font-size="16" font-weight="400" font-style="normal" 
>
</g>

<g fill="none" stroke="#000000" stroke-opacity="1" stroke-width="1" stroke-linecap="square" stroke-linejoin="bevel" transform="matrix(0.999931,0,0,0.999931,544.013,27.9981)"
font-family="Courier New" font-size="16" font-weight="400" font-style="normal" 
>
</g>

<g fill="none" stroke="#000000" stroke-opacity="1" stroke-width="1" stroke-linecap="square" stroke-linejoin="bevel" transform="matrix(0.999931,0,0,0.999931,544.013,27.9981)"
font-family="Courier New" font-size="16" font-weight="400" font-style="normal" 
>
</g>

<g fill="none" stroke="#000000" stroke-opacity="1" stroke-width="1" stroke-linecap="square" stroke-linejoin="bevel" transform="matrix(0.999931,0,0,0.999931,544.013,27.9981)"
font-family="Courier New" font-size="16" font-weight="400" font-style="normal" 
>
</g>

<g fill="none" stroke="#000000" stroke-opacity="1" stroke-width="1" stroke-linecap="square" stroke-linejoin="bevel" transform="matrix(0.999931,0,0,0.999931,544.013,27.9981)"
font-family="Courier New" font-size="16" font-weight="400" font-style="normal" 
>
</g>

<g fill="none" stroke="#000000" stroke-opacity="1" stroke-width="1" stroke-linecap="square" stroke-linejoin="bevel" transform="matrix(0.999931,0,0,0.999931,544.013,27.9981)"
font-family="Courier New" font-size="16" font-weight="400" font-style="normal" 
>
<text fill="#000000" fill-opacity="1" stroke="none" xml:space="preserve" x="4" y="18" font-family="Courier New" font-size="16" font-weight="700" font-style="normal" 
 >entry/</text>
</g>

<g fill="none" stroke="#000000" stroke-opacity="1" stroke-width="1" stroke-linecap="square" stroke-linejoin="bevel" transform="matrix(0.999931,0,0,0.999931,544.013,27.9981)"
font-family="Courier New" font-size="16" font-weight="400" font-style="normal" 
>
<text fill="#000000" fill-opacity="1" stroke="none" xml:space="preserve" x="4" y="35" font-family="Courier New" font-size="16" font-weight="400" font-style="normal" 
 >напряжение_</text>
</g>

<g fill="none" stroke="#000000" stroke-opacity="1" stroke-width="1" stroke-linecap="square" stroke-linejoin="bevel" transform="matrix(0.999931,0,0,0.999931,544.013,27.9981)"
font-family="Courier New" font-size="16" font-weight="400" font-style="normal" 
>
<text fill="#000000" fill-opacity="1" stroke="none" xml:space="preserve" x="109.531" y="35" font-family="Courier New" font-size="16" font-weight="400" font-style="normal" 
 >HIGH</text>
</g>

<g fill="none" stroke="#000000" stroke-opacity="1" stroke-width="1" stroke-linecap="square" stroke-linejoin="bevel" transform="matrix(0.999931,0,0,0.999931,544.013,27.9981)"
font-family="Courier New" font-size="16" font-weight="400" font-style="normal" 
>
</g>

<g fill="none" stroke="#000000" stroke-opacity="1" stroke-width="1" stroke-linecap="square" stroke-linejoin="bevel" transform="matrix(1,0,0,1,0,0)"
font-family="Courier New" font-size="16" font-weight="400" font-style="normal" 
>
</g>

<g fill="none" stroke="#000000" stroke-opacity="1" stroke-width="1" stroke-linecap="square" stroke-linejoin="bevel" transform="matrix(0.999931,0,0,0.999931,544.013,27.9981)"
font-family="Courier New" font-size="16" font-weight="400" font-style="normal" 
>
</g>

<g fill="none" stroke="#000000" stroke-opacity="1" stroke-width="1" stroke-linecap="square" stroke-linejoin="bevel" transform="matrix(0.999931,0,0,0.999931,544.013,27.9981)"
font-family="Courier New" font-size="16" font-weight="400" font-style="normal" 
>
</g>

<g fill="none" stroke="#000000" stroke-opacity="1" stroke-width="1" stroke-linecap="square" stroke-linejoin="bevel" transform="matrix(0.999931,0,0,0.999931,544.013,27.9981)"
font-family="Courier New" font-size="16" font-weight="400" font-style="normal" 
>
</g>

<g fill="none" stroke="#000000" stroke-opacity="1" stroke-width="1" stroke-linecap="square" stroke-linejoin="bevel" transform="matrix(0.999931,0,0,0.999931,10.9992,49.3032)"
font-family="Courier New" font-size="16" font-weight="400" font-style="normal" 
>
</g>

<g fill="#000000" fill-opacity="1" stroke="#000000" stroke-opacity="1" stroke-width="1" stroke-linecap="square" stroke-linejoin="bevel" transform="matrix(0.999931,0,0,0.999931,10.9992,49.3032)"
font-family="Courier New" font-size="16" font-weight="400" font-style="normal" 
>
<circle cx="0" cy="0" r="10"/>
</g>

<g fill="none" stroke="#000000" stroke-opacity="1" stroke-width="1" stroke-linecap="square" stroke-linejoin="bevel" transform="matrix(0.999931,0,0,0.999931,10.9992,49.3032)"
font-family="Courier New" font-size="16" font-weight="400" font-style="normal" 
>
</g>

<g fill="none" stroke="#000000" stroke-opacity="1" stroke-width="1" stroke-linecap="square" stroke-linejoin="bevel" transform="matrix(0.999931,0,0,0.999931,204.036,50.9965)"
font-family="Courier New" font-size="16" font-weight="400" font-style="normal" 
>
</g>

<g fill="none" stroke="#000000" stroke-opacity="1" stroke-width="2" stroke-linecap="square" stroke-linejoin="bevel" transform="matrix(0.999931,0,0,0.999931,204.036,50.9965)"
font-family="Courier New" font-size="16" font-weight="400" font-style="normal" 
>
<path vector-effect="none" fill-rule="evenodd" d="M100,-25 L325,-25"/>
</g>

<g fill="#000000" fill-opacity="1" stroke="#000000" stroke-opacity="1" stroke-width="1" stroke-linecap="square" stroke-linejoin="bevel" transform="matrix(0.999931,0,0,0.999931,204.036,50.9965)"
font-family="Courier New" font-size="16" font-weight="400" font-style="normal" 
>
<path vector-effect="none" fill-rule="evenodd" d="M325,-25 L316.34,-30 L316.34,-20 L325,-25"/>
</g>

<g fill="none" stroke="#000000" stroke-opacity="1" stroke-width="1" stroke-linecap="square" stroke-linejoin="bevel" transform="matrix(0.999931,0,0,0.999931,204.036,50.9965)"
font-family="Courier New" font-size="16" font-weight="400" font-style="normal" 
>
</g>

<g fill="none" stroke="#000000" stroke-opacity="1" stroke-width="1" stroke-linecap="square" stroke-linejoin="bevel" transform="matrix(0.999931,0,0,0.999931,348.896,12.8373)"
font-family="Courier New" font-size="16" font-weight="400" font-style="normal" 
>
</g>

<g fill="#ffffff" fill-opacity="0.901961" stroke="none" transform="matrix(0.999931,0,0,0.999931,348.896,12.8373)"
font-family="Courier New" font-size="16" font-weight="400" font-style="normal" 
>
<rect x="0" y="0" width="137.609" height="26"/>
</g>

<g fill="#ffffff" fill-opacity="0.901961" stroke="none" transform="matrix(0.999931,0,0,0.999931,348.896,12.8373)"
font-family="Courier New" font-size="16" font-weight="400" font-style="normal" 
>
</g>

<g fill="#ffffff" fill-opacity="0.901961" stroke="none" transform="matrix(0.999931,0,0,0.999931,348.896,12.8373)"
font-family="Courier New" font-size="16" font-weight="400" font-style="normal" 
>
</g>

<g fill="#ffffff" fill-opacity="0.901961" stroke="#000000" stroke-opacity="1" stroke-width="1" stroke-linecap="square" stroke-linejoin="bevel" transform="matrix(0.999931,0,0,0.999931,348.896,12.8373)"
font-family="Courier New" font-size="16" font-weight="400" font-style="normal" 
>
<text fill="#000000" fill-opacity="1" stroke="none" xml:space="preserve" x="6.4375" y="17" font-family="Courier New" font-size="16" font-weight="400" font-style="normal" 
 >КНОПКА_ЗАЖАТА</text>
</g>

<g fill="#ffffff" fill-opacity="0.901961" stroke="none" transform="matrix(0.999931,0,0,0.999931,348.896,12.8373)"
font-family="Courier New" font-size="16" font-weight="400" font-style="normal" 
>
</g>

<g fill="#ffffff" fill-opacity="0.901961" stroke="none" transform="matrix(1,0,0,1,0,0)"
font-family="Courier New" font-size="16" font-weight="400" font-style="normal" 
>
</g>

<g fill="#ffffff" fill-opacity="0.901961" stroke="none" transform="matrix(0.999931,0,0,0.999931,348.896,12.8373)"
font-family="Courier New" font-size="16" font-weight="400" font-style="normal" 
>
</g>

<g fill="#ffffff" fill-opacity="0.901961" stroke="none" transform="matrix(0.999931,0,0,0.999931,348.896,12.8373)"
font-family="Courier New" font-size="16" font-weight="400" font-style="normal" 
>
</g>

<g fill="none" stroke="#000000" stroke-opacity="1" stroke-width="1" stroke-linecap="square" stroke-linejoin="bevel" transform="matrix(0.999931,0,0,0.999931,348.896,12.8373)"
font-family="Courier New" font-size="16" font-weight="400" font-style="normal" 
>
</g>

<g fill="none" stroke="#000000" stroke-opacity="1" stroke-width="1" stroke-linecap="square" stroke-linejoin="bevel" transform="matrix(0.999931,0,0,0.999931,204.036,50.9965)"
font-family="Courier New" font-size="16" font-weight="400" font-style="normal" 
>
</g>

<g fill="none" stroke="#000000" stroke-opacity="1" stroke-width="2" stroke-linecap="square" stroke-linejoin="bevel" transform="matrix(0.999931,0,0,0.999931,204.036,50.9965)"
font-family="Courier New" font-size="16" font-weight="400" font-style="normal" 
>
<path vector-effect="none" fill-rule="evenodd" d="M325,30.5413 L100,31.1058"/>
</g>

<g fill="#000000" fill-opacity="1" stroke="#000000" stroke-opacity="1" stroke-width="1" stroke-linecap="square" stroke-linejoin="bevel" transform="matrix(0.999931,0,0,0.999931,204.036,50.9965)"
font-family="Courier New" font-size="16" font-weight="400" font-style="normal" 
>
<path vector-effect="none" fill-rule="evenodd" d="M100,31.1058 L108.673,36.084 L108.648,26.084 L100,31.1058"/>
</g>

<g fill="none" stroke="#000000" stroke-opacity="1" stroke-width="1" stroke-linecap="square" stroke-linejoin="bevel" transform="matrix(0.999931,0,0,0.999931,204.036,50.9965)"
font-family="Courier New" font-size="16" font-weight="400" font-style="normal" 
>
</g>

<g fill="none" stroke="#000000" stroke-opacity="1" stroke-width="1" stroke-linecap="square" stroke-linejoin="bevel" transform="matrix(0.999931,0,0,0.999931,356.597,69.9477)"
font-family="Courier New" font-size="16" font-weight="400" font-style="normal" 
>
</g>

<g fill="#ffffff" fill-opacity="0.901961" stroke="none" transform="matrix(0.999931,0,0,0.999931,356.597,69.9477)"
font-family="Courier New" font-size="16" font-weight="400" font-style="normal" 
>
<rect x="0" y="0" width="132.719" height="26"/>
</g>

<g fill="#ffffff" fill-opacity="0.901961" stroke="none" transform="matrix(0.999931,0,0,0.999931,356.597,69.9477)"
font-family="Courier New" font-size="16" font-weight="400" font-style="normal" 
>
</g>

<g fill="#ffffff" fill-opacity="0.901961" stroke="none" transform="matrix(0.999931,0,0,0.999931,356.597,69.9477)"
font-family="Courier New" font-size="16" font-weight="400" font-style="normal" 
>
</g>

<g fill="#ffffff" fill-opacity="0.901961" stroke="#000000" stroke-opacity="1" stroke-width="1" stroke-linecap="square" stroke-linejoin="bevel" transform="matrix(0.999931,0,0,0.999931,356.597,69.9477)"
font-family="Courier New" font-size="16" font-weight="400" font-style="normal" 
>
<text fill="#000000" fill-opacity="1" stroke="none" xml:space="preserve" x="4" y="17" font-family="Courier New" font-size="16" font-weight="400" font-style="normal" 
 >КНОПКА_ОТЖАТА</text>
</g>

<g fill="#ffffff" fill-opacity="0.901961" stroke="none" transform="matrix(0.999931,0,0,0.999931,356.597,69.9477)"
font-family="Courier New" font-size="16" font-weight="400" font-style="normal" 
>
</g>

<g fill="#ffffff" fill-opacity="0.901961" stroke="none" transform="matrix(1,0,0,1,0,0)"
font-family="Courier New" font-size="16" font-weight="400" font-style="normal" 
>
</g>

<g fill="#ffffff" fill-opacity="0.901961" stroke="none" transform="matrix(0.999931,0,0,0.999931,356.597,69.9477)"
font-family="Courier New" font-size="16" font-weight="400" font-style="normal" 
>
</g>

<g fill="#ffffff" fill-opacity="0.901961" stroke="none" transform="matrix(0.999931,0,0,0.999931,356.597,69.9477)"
font-family="Courier New" font-size="16" font-weight="400" font-style="normal" 
>
</g>

<g fill="none" stroke="#000000" stroke-opacity="1" stroke-width="1" stroke-linecap="square" stroke-linejoin="bevel" transform="matrix(0.999931,0,0,0.999931,356.597,69.9477)"
font-family="Courier New" font-size="16" font-weight="400" font-style="normal" 
>
</g>

<g fill="none" stroke="#000000" stroke-opacity="1" stroke-width="1" stroke-linecap="square" stroke-linejoin="bevel" transform="matrix(0.999931,0,0,0.999931,204.036,50.9965)"
font-family="Courier New" font-size="16" font-weight="400" font-style="normal" 
>
</g>

<g fill="none" stroke="#000000" stroke-opacity="1" stroke-width="2" stroke-linecap="square" stroke-linejoin="bevel" transform="matrix(0.999931,0,0,0.999931,204.036,50.9965)"
font-family="Courier New" font-size="16" font-weight="400" font-style="normal" 
>
<path vector-effect="none" fill-rule="evenodd" d="M-183.05,-1.66063 L-125,-1.47027"/>
</g>

<g fill="#000000" fill-opacity="1" stroke="#000000" stroke-opacity="1" stroke-width="1" stroke-linecap="square" stroke-linejoin="bevel" transform="matrix(0.999931,0,0,0.999931,204.036,50.9965)"
font-family="Courier New" font-size="16" font-weight="400" font-style="normal" 
>
<path vector-effect="none" fill-rule="evenodd" d="M-125,-1.47027 L-133.644,-6.49865 L-133.677,3.5013 L-125,-1.47027"/>
</g>

<g fill="none" stroke="#000000" stroke-opacity="1" stroke-width="1" stroke-linecap="square" stroke-linejoin="bevel" transform="matrix(0.999931,0,0,0.999931,204.036,50.9965)"
font-family="Courier New" font-size="16" font-weight="400" font-style="normal" 
>
</g>

<g fill="none" stroke="#000000" stroke-opacity="1" stroke-width="1" stroke-linecap="square" stroke-linejoin="bevel" transform="matrix(0.999931,0,0,0.999931,46.0219,36.432)"
font-family="Courier New" font-size="16" font-weight="400" font-style="normal" 
>
</g>

<g fill="none" stroke="#000000" stroke-opacity="1" stroke-width="1" stroke-linecap="square" stroke-linejoin="bevel" transform="matrix(0.999931,0,0,0.999931,46.0219,36.432)"
font-family="Courier New" font-size="16" font-weight="400" font-style="normal" 
>
</g>

<g fill="none" stroke="#000000" stroke-opacity="1" stroke-width="1" stroke-linecap="square" stroke-linejoin="bevel" transform="matrix(0.999931,0,0,0.999931,46.0219,36.432)"
font-family="Courier New" font-size="16" font-weight="400" font-style="normal" 
>
</g>

<g fill="none" stroke="#000000" stroke-opacity="1" stroke-width="1" stroke-linecap="square" stroke-linejoin="bevel" transform="matrix(0.999931,0,0,0.999931,46.0219,36.432)"
font-family="Courier New" font-size="16" font-weight="400" font-style="normal" 
>
</g>

<g fill="none" stroke="#000000" stroke-opacity="1" stroke-width="1" stroke-linecap="square" stroke-linejoin="bevel" transform="matrix(1,0,0,1,0,0)"
font-family="Courier New" font-size="16" font-weight="400" font-style="normal" 
>
</g>

<g fill="none" stroke="#000000" stroke-opacity="1" stroke-width="1" stroke-linecap="square" stroke-linejoin="bevel" transform="matrix(0.999931,0,0,0.999931,46.0219,36.432)"
font-family="Courier New" font-size="16" font-weight="400" font-style="normal" 
>
</g>

<g fill="none" stroke="#000000" stroke-opacity="1" stroke-width="1" stroke-linecap="square" stroke-linejoin="bevel" transform="matrix(0.999931,0,0,0.999931,46.0219,36.432)"
font-family="Courier New" font-size="16" font-weight="400" font-style="normal" 
>
</g>

<g fill="none" stroke="#000000" stroke-opacity="1" stroke-width="1" stroke-linecap="square" stroke-linejoin="bevel" transform="matrix(0.999931,0,0,0.999931,46.0219,36.432)"
font-family="Courier New" font-size="16" font-weight="400" font-style="normal" 
>
</g>

<g fill="none" stroke="#000000" stroke-opacity="1" stroke-width="1" stroke-linecap="square" stroke-linejoin="bevel" transform="matrix(1,0,0,1,0,0)"
font-family="Courier New" font-size="16" font-weight="400" font-style="normal" 
>
</g>
</g>
</svg>
