<?xml version="1.0" encoding="UTF-8" standalone="no"?>
<svg width="239.889mm" height="35.9833mm"
 viewBox="0 0 680 102"
 xmlns="http://www.w3.org/2000/svg" xmlns:xlink="http://www.w3.org/1999/xlink"  version="1.2" baseProfile="tiny">
<title>Qt SVG Document</title>
<desc>Generated with Qt</desc>
<defs>
</defs>
<g fill="none" stroke="black" stroke-width="1" fill-rule="evenodd" stroke-linecap="square" stroke-linejoin="bevel" >

<g fill="#ffffff" fill-opacity="1" stroke="none" transform="matrix(1,0,0,1,0,0)"
font-family="Courier New" font-size="16" font-weight="400" font-style="normal" 
>
<rect x="0" y="0" width="680" height="102"/>
</g>

<g fill="none" stroke="#000000" stroke-opacity="1" stroke-width="1" stroke-linecap="square" stroke-linejoin="bevel" transform="matrix(1,0,0,1,0,0)"
font-family="Courier New" font-size="16" font-weight="400" font-style="normal" 
>
</g>

<g fill="none" stroke="#000000" stroke-opacity="1" stroke-width="1" stroke-linecap="square" stroke-linejoin="bevel" transform="matrix(1,0,0,1,0,0)"
font-family="Courier New" font-size="16" font-weight="400" font-style="normal" 
>
</g>

<g fill="none" stroke="#000000" stroke-opacity="1" stroke-width="1" stroke-linecap="square" stroke-linejoin="bevel" transform="matrix(0.999926,0,0,0.999926,204.035,50.9962)"
font-family="Courier New" font-size="16" font-weight="400" font-style="normal" 
>
</g>

<g fill="none" stroke="#000000" stroke-opacity="1" stroke-width="1" stroke-linecap="square" stroke-linejoin="bevel" transform="matrix(0.999926,0,0,0.999926,204.035,50.9962)"
font-family="Courier New" font-size="16" font-weight="400" font-style="normal" 
>
</g>

<g fill="none" stroke="#000000" stroke-opacity="1" stroke-width="1" stroke-linecap="square" stroke-linejoin="bevel" transform="matrix(0.999926,0,0,0.999926,179.037,50.9962)"
font-family="Courier New" font-size="16" font-weight="400" font-style="normal" 
>
</g>

<g fill="none" stroke="#000000" stroke-opacity="1" stroke-width="2" stroke-linecap="square" stroke-linejoin="bevel" transform="matrix(0.999926,0,0,0.999926,179.037,50.9962)"
font-family="Courier New" font-size="16" font-weight="400" font-style="normal" 
>
<polyline fill="none" vector-effect="none" points="-100,-23 100,-23 " />
<path vector-effect="none" fill-rule="evenodd" d="M-100,-40 C-100,-45.5228 -95.5228,-50 -90,-50 L90,-50 C95.5228,-50 100,-45.5228 100,-40 L100,40 C100,45.5228 95.5228,50 90,50 L-90,50 C-95.5228,50 -100,45.5228 -100,40 L-100,-40"/>
</g>

<g fill="none" stroke="#000000" stroke-opacity="1" stroke-width="1" stroke-linecap="square" stroke-linejoin="bevel" transform="matrix(0.999926,0,0,0.999926,179.037,50.9962)"
font-family="Courier New" font-size="16" font-weight="400" font-style="normal" 
>
</g>

<g fill="none" stroke="#000000" stroke-opacity="1" stroke-width="1" stroke-linecap="square" stroke-linejoin="bevel" transform="matrix(0.999926,0,0,0.999926,79.0444,0.999926)"
font-family="Courier New" font-size="16" font-weight="400" font-style="normal" 
>
</g>

<g fill="none" stroke="#000000" stroke-opacity="1" stroke-width="1" stroke-linecap="square" stroke-linejoin="bevel" transform="matrix(0.999926,0,0,0.999926,79.0444,0.999926)"
font-family="Courier New" font-size="16" font-weight="700" font-style="normal" 
>
</g>

<g fill="none" stroke="#000000" stroke-opacity="1" stroke-width="1" stroke-linecap="square" stroke-linejoin="bevel" transform="matrix(0.999926,0,0,0.999926,79.0444,0.999926)"
font-family="Courier New" font-size="16" font-weight="700" font-style="normal" 
>
</g>

<g fill="none" stroke="#000000" stroke-opacity="1" stroke-width="1" stroke-linecap="square" stroke-linejoin="bevel" transform="matrix(0.999926,0,0,0.999926,79.0444,0.999926)"
font-family="Courier New" font-size="16" font-weight="700" font-style="normal" 
>
</g>

<g fill="none" stroke="#000000" stroke-opacity="1" stroke-width="1" stroke-linecap="square" stroke-linejoin="bevel" transform="matrix(0.999926,0,0,0.999926,79.0444,0.999926)"
font-family="Courier New" font-size="16" font-weight="700" font-style="normal" 
>
<text fill="#000000" fill-opacity="1" stroke="none" xml:space="preserve" x="71.2188" y="18" font-family="Courier New" font-size="16" font-weight="700" font-style="normal" 
 >Светит</text>
</g>

<g fill="none" stroke="#000000" stroke-opacity="1" stroke-width="1" stroke-linecap="square" stroke-linejoin="bevel" transform="matrix(0.999926,0,0,0.999926,79.0444,0.999926)"
font-family="Courier New" font-size="16" font-weight="700" font-style="normal" 
>
</g>

<g fill="none" stroke="#000000" stroke-opacity="1" stroke-width="1" stroke-linecap="square" stroke-linejoin="bevel" transform="matrix(1,0,0,1,0,0)"
font-family="Courier New" font-size="16" font-weight="700" font-style="normal" 
>
</g>

<g fill="none" stroke="#000000" stroke-opacity="1" stroke-width="1" stroke-linecap="square" stroke-linejoin="bevel" transform="matrix(0.999926,0,0,0.999926,79.0444,0.999926)"
font-family="Courier New" font-size="16" font-weight="700" font-style="normal" 
>
</g>

<g fill="none" stroke="#000000" stroke-opacity="1" stroke-width="1" stroke-linecap="square" stroke-linejoin="bevel" transform="matrix(0.999926,0,0,0.999926,79.0444,0.999926)"
font-family="Courier New" font-size="16" font-weight="700" font-style="normal" 
>
</g>

<g fill="none" stroke="#000000" stroke-opacity="1" stroke-width="1" stroke-linecap="square" stroke-linejoin="bevel" transform="matrix(0.999926,0,0,0.999926,79.0444,0.999926)"
font-family="Courier New" font-size="16" font-weight="400" font-style="normal" 
>
</g>

<g fill="none" stroke="#000000" stroke-opacity="1" stroke-width="1" stroke-linecap="square" stroke-linejoin="bevel" transform="matrix(0.999926,0,0,0.999926,94.0433,27.9979)"
font-family="Courier New" font-size="16" font-weight="400" font-style="normal" 
>
</g>

<g fill="none" stroke="#000000" stroke-opacity="1" stroke-width="1" stroke-linecap="square" stroke-linejoin="bevel" transform="matrix(0.999926,0,0,0.999926,94.0433,27.9979)"
font-family="Courier New" font-size="16" font-weight="400" font-style="normal" 
>
</g>

<g fill="none" stroke="#000000" stroke-opacity="1" stroke-width="1" stroke-linecap="square" stroke-linejoin="bevel" transform="matrix(0.999926,0,0,0.999926,94.0433,27.9979)"
font-family="Courier New" font-size="16" font-weight="400" font-style="normal" 
>
</g>

<g fill="none" stroke="#000000" stroke-opacity="1" stroke-width="1" stroke-linecap="square" stroke-linejoin="bevel" transform="matrix(0.999926,0,0,0.999926,94.0433,27.9979)"
font-family="Courier New" font-size="16" font-weight="400" font-style="normal" 
>
</g>

<g fill="none" stroke="#000000" stroke-opacity="1" stroke-width="1" stroke-linecap="square" stroke-linejoin="bevel" transform="matrix(0.999926,0,0,0.999926,94.0433,27.9979)"
font-family="Courier New" font-size="16" font-weight="400" font-style="normal" 
>
<text fill="#000000" fill-opacity="1" stroke="none" xml:space="preserve" x="4" y="18" font-family="Courier New" font-size="16" font-weight="700" font-style="normal" 
 >entry/</text>
</g>

<g fill="none" stroke="#000000" stroke-opacity="1" stroke-width="1" stroke-linecap="square" stroke-linejoin="bevel" transform="matrix(0.999926,0,0,0.999926,94.0433,27.9979)"
font-family="Courier New" font-size="16" font-weight="400" font-style="normal" 
>
<text fill="#000000" fill-opacity="1" stroke="none" xml:space="preserve" x="4" y="35" font-family="Courier New" font-size="16" font-weight="400" font-style="normal" 
 >включить_лампу</text>
</g>

<g fill="none" stroke="#000000" stroke-opacity="1" stroke-width="1" stroke-linecap="square" stroke-linejoin="bevel" transform="matrix(0.999926,0,0,0.999926,94.0433,27.9979)"
font-family="Courier New" font-size="16" font-weight="400" font-style="normal" 
>
</g>

<g fill="none" stroke="#000000" stroke-opacity="1" stroke-width="1" stroke-linecap="square" stroke-linejoin="bevel" transform="matrix(1,0,0,1,0,0)"
font-family="Courier New" font-size="16" font-weight="400" font-style="normal" 
>
</g>

<g fill="none" stroke="#000000" stroke-opacity="1" stroke-width="1" stroke-linecap="square" stroke-linejoin="bevel" transform="matrix(0.999926,0,0,0.999926,94.0433,27.9979)"
font-family="Courier New" font-size="16" font-weight="400" font-style="normal" 
>
</g>

<g fill="none" stroke="#000000" stroke-opacity="1" stroke-width="1" stroke-linecap="square" stroke-linejoin="bevel" transform="matrix(0.999926,0,0,0.999926,94.0433,27.9979)"
font-family="Courier New" font-size="16" font-weight="400" font-style="normal" 
>
</g>

<g fill="none" stroke="#000000" stroke-opacity="1" stroke-width="1" stroke-linecap="square" stroke-linejoin="bevel" transform="matrix(0.999926,0,0,0.999926,94.0433,27.9979)"
font-family="Courier New" font-size="16" font-weight="400" font-style="normal" 
>
</g>

<g fill="none" stroke="#000000" stroke-opacity="1" stroke-width="1" stroke-linecap="square" stroke-linejoin="bevel" transform="matrix(0.999926,0,0,0.999926,579.007,50.9962)"
font-family="Courier New" font-size="16" font-weight="400" font-style="normal" 
>
</g>

<g fill="none" stroke="#000000" stroke-opacity="1" stroke-width="2" stroke-linecap="square" stroke-linejoin="bevel" transform="matrix(0.999926,0,0,0.999926,579.007,50.9962)"
font-family="Courier New" font-size="16" font-weight="400" font-style="normal" 
>
<polyline fill="none" vector-effect="none" points="-100,-23 100,-23 " />
<path vector-effect="none" fill-rule="evenodd" d="M-100,-40 C-100,-45.5228 -95.5228,-50 -90,-50 L90,-50 C95.5228,-50 100,-45.5228 100,-40 L100,40 C100,45.5228 95.5228,50 90,50 L-90,50 C-95.5228,50 -100,45.5228 -100,40 L-100,-40"/>
</g>

<g fill="none" stroke="#000000" stroke-opacity="1" stroke-width="1" stroke-linecap="square" stroke-linejoin="bevel" transform="matrix(0.999926,0,0,0.999926,579.007,50.9962)"
font-family="Courier New" font-size="16" font-weight="400" font-style="normal" 
>
</g>

<g fill="none" stroke="#000000" stroke-opacity="1" stroke-width="1" stroke-linecap="square" stroke-linejoin="bevel" transform="matrix(0.999926,0,0,0.999926,479.015,0.999926)"
font-family="Courier New" font-size="16" font-weight="400" font-style="normal" 
>
</g>

<g fill="none" stroke="#000000" stroke-opacity="1" stroke-width="1" stroke-linecap="square" stroke-linejoin="bevel" transform="matrix(0.999926,0,0,0.999926,479.015,0.999926)"
font-family="Courier New" font-size="16" font-weight="700" font-style="normal" 
>
</g>

<g fill="none" stroke="#000000" stroke-opacity="1" stroke-width="1" stroke-linecap="square" stroke-linejoin="bevel" transform="matrix(0.999926,0,0,0.999926,479.015,0.999926)"
font-family="Courier New" font-size="16" font-weight="700" font-style="normal" 
>
</g>

<g fill="none" stroke="#000000" stroke-opacity="1" stroke-width="1" stroke-linecap="square" stroke-linejoin="bevel" transform="matrix(0.999926,0,0,0.999926,479.015,0.999926)"
font-family="Courier New" font-size="16" font-weight="700" font-style="normal" 
>
</g>

<g fill="none" stroke="#000000" stroke-opacity="1" stroke-width="1" stroke-linecap="square" stroke-linejoin="bevel" transform="matrix(0.999926,0,0,0.999926,479.015,0.999926)"
font-family="Courier New" font-size="16" font-weight="700" font-style="normal" 
>
<text fill="#000000" fill-opacity="1" stroke="none" xml:space="preserve" x="28.0469" y="18" font-family="Courier New" font-size="16" font-weight="700" font-style="normal" 
 >Дневной перерыв</text>
</g>

<g fill="none" stroke="#000000" stroke-opacity="1" stroke-width="1" stroke-linecap="square" stroke-linejoin="bevel" transform="matrix(0.999926,0,0,0.999926,479.015,0.999926)"
font-family="Courier New" font-size="16" font-weight="700" font-style="normal" 
>
</g>

<g fill="none" stroke="#000000" stroke-opacity="1" stroke-width="1" stroke-linecap="square" stroke-linejoin="bevel" transform="matrix(1,0,0,1,0,0)"
font-family="Courier New" font-size="16" font-weight="700" font-style="normal" 
>
</g>

<g fill="none" stroke="#000000" stroke-opacity="1" stroke-width="1" stroke-linecap="square" stroke-linejoin="bevel" transform="matrix(0.999926,0,0,0.999926,479.015,0.999926)"
font-family="Courier New" font-size="16" font-weight="700" font-style="normal" 
>
</g>

<g fill="none" stroke="#000000" stroke-opacity="1" stroke-width="1" stroke-linecap="square" stroke-linejoin="bevel" transform="matrix(0.999926,0,0,0.999926,479.015,0.999926)"
font-family="Courier New" font-size="16" font-weight="700" font-style="normal" 
>
</g>

<g fill="none" stroke="#000000" stroke-opacity="1" stroke-width="1" stroke-linecap="square" stroke-linejoin="bevel" transform="matrix(0.999926,0,0,0.999926,479.015,0.999926)"
font-family="Courier New" font-size="16" font-weight="400" font-style="normal" 
>
</g>

<g fill="none" stroke="#000000" stroke-opacity="1" stroke-width="1" stroke-linecap="square" stroke-linejoin="bevel" transform="matrix(0.999926,0,0,0.999926,494.014,27.9979)"
font-family="Courier New" font-size="16" font-weight="400" font-style="normal" 
>
</g>

<g fill="none" stroke="#000000" stroke-opacity="1" stroke-width="1" stroke-linecap="square" stroke-linejoin="bevel" transform="matrix(0.999926,0,0,0.999926,494.014,27.9979)"
font-family="Courier New" font-size="16" font-weight="400" font-style="normal" 
>
</g>

<g fill="none" stroke="#000000" stroke-opacity="1" stroke-width="1" stroke-linecap="square" stroke-linejoin="bevel" transform="matrix(0.999926,0,0,0.999926,494.014,27.9979)"
font-family="Courier New" font-size="16" font-weight="400" font-style="normal" 
>
</g>

<g fill="none" stroke="#000000" stroke-opacity="1" stroke-width="1" stroke-linecap="square" stroke-linejoin="bevel" transform="matrix(0.999926,0,0,0.999926,494.014,27.9979)"
font-family="Courier New" font-size="16" font-weight="400" font-style="normal" 
>
</g>

<g fill="none" stroke="#000000" stroke-opacity="1" stroke-width="1" stroke-linecap="square" stroke-linejoin="bevel" transform="matrix(0.999926,0,0,0.999926,494.014,27.9979)"
font-family="Courier New" font-size="16" font-weight="400" font-style="normal" 
>
<text fill="#000000" fill-opacity="1" stroke="none" xml:space="preserve" x="4" y="18" font-family="Courier New" font-size="16" font-weight="700" font-style="normal" 
 >entry/</text>
</g>

<g fill="none" stroke="#000000" stroke-opacity="1" stroke-width="1" stroke-linecap="square" stroke-linejoin="bevel" transform="matrix(0.999926,0,0,0.999926,494.014,27.9979)"
font-family="Courier New" font-size="16" font-weight="400" font-style="normal" 
>
<text fill="#000000" fill-opacity="1" stroke="none" xml:space="preserve" x="4" y="35" font-family="Courier New" font-size="16" font-weight="400" font-style="normal" 
 >выключить_лампу</text>
</g>

<g fill="none" stroke="#000000" stroke-opacity="1" stroke-width="1" stroke-linecap="square" stroke-linejoin="bevel" transform="matrix(0.999926,0,0,0.999926,494.014,27.9979)"
font-family="Courier New" font-size="16" font-weight="400" font-style="normal" 
>
</g>

<g fill="none" stroke="#000000" stroke-opacity="1" stroke-width="1" stroke-linecap="square" stroke-linejoin="bevel" transform="matrix(1,0,0,1,0,0)"
font-family="Courier New" font-size="16" font-weight="400" font-style="normal" 
>
</g>

<g fill="none" stroke="#000000" stroke-opacity="1" stroke-width="1" stroke-linecap="square" stroke-linejoin="bevel" transform="matrix(0.999926,0,0,0.999926,494.014,27.9979)"
font-family="Courier New" font-size="16" font-weight="400" font-style="normal" 
>
</g>

<g fill="none" stroke="#000000" stroke-opacity="1" stroke-width="1" stroke-linecap="square" stroke-linejoin="bevel" transform="matrix(0.999926,0,0,0.999926,494.014,27.9979)"
font-family="Courier New" font-size="16" font-weight="400" font-style="normal" 
>
</g>

<g fill="none" stroke="#000000" stroke-opacity="1" stroke-width="1" stroke-linecap="square" stroke-linejoin="bevel" transform="matrix(0.999926,0,0,0.999926,494.014,27.9979)"
font-family="Courier New" font-size="16" font-weight="400" font-style="normal" 
>
</g>

<g fill="none" stroke="#000000" stroke-opacity="1" stroke-width="1" stroke-linecap="square" stroke-linejoin="bevel" transform="matrix(0.999926,0,0,0.999926,10.9992,49.3029)"
font-family="Courier New" font-size="16" font-weight="400" font-style="normal" 
>
</g>

<g fill="#000000" fill-opacity="1" stroke="#000000" stroke-opacity="1" stroke-width="1" stroke-linecap="square" stroke-linejoin="bevel" transform="matrix(0.999926,0,0,0.999926,10.9992,49.3029)"
font-family="Courier New" font-size="16" font-weight="400" font-style="normal" 
>
<circle cx="0" cy="0" r="10"/>
</g>

<g fill="none" stroke="#000000" stroke-opacity="1" stroke-width="1" stroke-linecap="square" stroke-linejoin="bevel" transform="matrix(0.999926,0,0,0.999926,10.9992,49.3029)"
font-family="Courier New" font-size="16" font-weight="400" font-style="normal" 
>
</g>

<g fill="none" stroke="#000000" stroke-opacity="1" stroke-width="1" stroke-linecap="square" stroke-linejoin="bevel" transform="matrix(0.999926,0,0,0.999926,204.035,50.9962)"
font-family="Courier New" font-size="16" font-weight="400" font-style="normal" 
>
</g>

<g fill="none" stroke="#000000" stroke-opacity="1" stroke-width="2" stroke-linecap="square" stroke-linejoin="bevel" transform="matrix(0.999926,0,0,0.999926,204.035,50.9962)"
font-family="Courier New" font-size="16" font-weight="400" font-style="normal" 
>
<path vector-effect="none" fill-rule="evenodd" d="M75,-25 L275,-25"/>
</g>

<g fill="#000000" fill-opacity="1" stroke="#000000" stroke-opacity="1" stroke-width="1" stroke-linecap="square" stroke-linejoin="bevel" transform="matrix(0.999926,0,0,0.999926,204.035,50.9962)"
font-family="Courier New" font-size="16" font-weight="400" font-style="normal" 
>
<path vector-effect="none" fill-rule="evenodd" d="M275,-25 L266.34,-30 L266.34,-20 L275,-25"/>
</g>

<g fill="none" stroke="#000000" stroke-opacity="1" stroke-width="1" stroke-linecap="square" stroke-linejoin="bevel" transform="matrix(0.999926,0,0,0.999926,204.035,50.9962)"
font-family="Courier New" font-size="16" font-weight="400" font-style="normal" 
>
</g>

<g fill="none" stroke="#000000" stroke-opacity="1" stroke-width="1" stroke-linecap="square" stroke-linejoin="bevel" transform="matrix(0.999926,0,0,0.999926,331.854,12.999)"
font-family="Courier New" font-size="16" font-weight="400" font-style="normal" 
>
</g>

<g fill="#ffffff" fill-opacity="0.901961" stroke="none" transform="matrix(0.999926,0,0,0.999926,331.854,12.999)"
font-family="Courier New" font-size="16" font-weight="400" font-style="normal" 
>
<rect x="0" y="0" width="94.3438" height="26"/>
</g>

<g fill="#ffffff" fill-opacity="0.901961" stroke="none" transform="matrix(0.999926,0,0,0.999926,331.854,12.999)"
font-family="Courier New" font-size="16" font-weight="400" font-style="normal" 
>
</g>

<g fill="#ffffff" fill-opacity="0.901961" stroke="none" transform="matrix(0.999926,0,0,0.999926,331.854,12.999)"
font-family="Courier New" font-size="16" font-weight="400" font-style="normal" 
>
</g>

<g fill="#ffffff" fill-opacity="0.901961" stroke="#000000" stroke-opacity="1" stroke-width="1" stroke-linecap="square" stroke-linejoin="bevel" transform="matrix(0.999926,0,0,0.999926,331.854,12.999)"
font-family="Courier New" font-size="16" font-weight="400" font-style="normal" 
>
<text fill="#000000" fill-opacity="1" stroke="none" xml:space="preserve" x="4" y="17" font-family="Courier New" font-size="16" font-weight="400" font-style="normal" 
 >Кнопка</text>
</g>

<g fill="#ffffff" fill-opacity="0.901961" stroke="#000000" stroke-opacity="1" stroke-width="1" stroke-linecap="square" stroke-linejoin="bevel" transform="matrix(0.999926,0,0,0.999926,331.854,12.999)"
font-family="Courier New" font-size="16" font-weight="400" font-style="normal" 
>
<text fill="#000000" fill-opacity="1" stroke="none" xml:space="preserve" x="61.5625" y="17" font-family="Courier New" font-size="16" font-weight="400" font-style="normal" 
 >OFF</text>
</g>

<g fill="#ffffff" fill-opacity="0.901961" stroke="none" transform="matrix(0.999926,0,0,0.999926,331.854,12.999)"
font-family="Courier New" font-size="16" font-weight="400" font-style="normal" 
>
</g>

<g fill="#ffffff" fill-opacity="0.901961" stroke="none" transform="matrix(1,0,0,1,0,0)"
font-family="Courier New" font-size="16" font-weight="400" font-style="normal" 
>
</g>

<g fill="#ffffff" fill-opacity="0.901961" stroke="none" transform="matrix(0.999926,0,0,0.999926,331.854,12.999)"
font-family="Courier New" font-size="16" font-weight="400" font-style="normal" 
>
</g>

<g fill="#ffffff" fill-opacity="0.901961" stroke="none" transform="matrix(0.999926,0,0,0.999926,331.854,12.999)"
font-family="Courier New" font-size="16" font-weight="400" font-style="normal" 
>
</g>

<g fill="none" stroke="#000000" stroke-opacity="1" stroke-width="1" stroke-linecap="square" stroke-linejoin="bevel" transform="matrix(0.999926,0,0,0.999926,331.854,12.999)"
font-family="Courier New" font-size="16" font-weight="400" font-style="normal" 
>
</g>

<g fill="none" stroke="#000000" stroke-opacity="1" stroke-width="1" stroke-linecap="square" stroke-linejoin="bevel" transform="matrix(0.999926,0,0,0.999926,204.035,50.9962)"
font-family="Courier New" font-size="16" font-weight="400" font-style="normal" 
>
</g>

<g fill="none" stroke="#000000" stroke-opacity="1" stroke-width="2" stroke-linecap="square" stroke-linejoin="bevel" transform="matrix(0.999926,0,0,0.999926,204.035,50.9962)"
font-family="Courier New" font-size="16" font-weight="400" font-style="normal" 
>
<path vector-effect="none" fill-rule="evenodd" d="M275,30.5413 L75,31.1058"/>
</g>

<g fill="#000000" fill-opacity="1" stroke="#000000" stroke-opacity="1" stroke-width="1" stroke-linecap="square" stroke-linejoin="bevel" transform="matrix(0.999926,0,0,0.999926,204.035,50.9962)"
font-family="Courier New" font-size="16" font-weight="400" font-style="normal" 
>
<path vector-effect="none" fill-rule="evenodd" d="M75,31.1058 L83.6743,36.0813 L83.6461,26.0813 L75,31.1058"/>
</g>

<g fill="none" stroke="#000000" stroke-opacity="1" stroke-width="1" stroke-linecap="square" stroke-linejoin="bevel" transform="matrix(0.999926,0,0,0.999926,204.035,50.9962)"
font-family="Courier New" font-size="16" font-weight="400" font-style="normal" 
>
</g>

<g fill="none" stroke="#000000" stroke-opacity="1" stroke-width="1" stroke-linecap="square" stroke-linejoin="bevel" transform="matrix(0.999926,0,0,0.999926,336.65,68.8184)"
font-family="Courier New" font-size="16" font-weight="400" font-style="normal" 
>
</g>

<g fill="#ffffff" fill-opacity="0.901961" stroke="none" transform="matrix(0.999926,0,0,0.999926,336.65,68.8184)"
font-family="Courier New" font-size="16" font-weight="400" font-style="normal" 
>
<rect x="0" y="0" width="84.75" height="26"/>
</g>

<g fill="#ffffff" fill-opacity="0.901961" stroke="none" transform="matrix(0.999926,0,0,0.999926,336.65,68.8184)"
font-family="Courier New" font-size="16" font-weight="400" font-style="normal" 
>
</g>

<g fill="#ffffff" fill-opacity="0.901961" stroke="none" transform="matrix(0.999926,0,0,0.999926,336.65,68.8184)"
font-family="Courier New" font-size="16" font-weight="400" font-style="normal" 
>
</g>

<g fill="#ffffff" fill-opacity="0.901961" stroke="#000000" stroke-opacity="1" stroke-width="1" stroke-linecap="square" stroke-linejoin="bevel" transform="matrix(0.999926,0,0,0.999926,336.65,68.8184)"
font-family="Courier New" font-size="16" font-weight="400" font-style="normal" 
>
<text fill="#000000" fill-opacity="1" stroke="none" xml:space="preserve" x="4" y="17" font-family="Courier New" font-size="16" font-weight="400" font-style="normal" 
 >Кнопка</text>
</g>

<g fill="#ffffff" fill-opacity="0.901961" stroke="#000000" stroke-opacity="1" stroke-width="1" stroke-linecap="square" stroke-linejoin="bevel" transform="matrix(0.999926,0,0,0.999926,336.65,68.8184)"
font-family="Courier New" font-size="16" font-weight="400" font-style="normal" 
>
<text fill="#000000" fill-opacity="1" stroke="none" xml:space="preserve" x="61.5625" y="17" font-family="Courier New" font-size="16" font-weight="400" font-style="normal" 
 >ON</text>
</g>

<g fill="#ffffff" fill-opacity="0.901961" stroke="none" transform="matrix(0.999926,0,0,0.999926,336.65,68.8184)"
font-family="Courier New" font-size="16" font-weight="400" font-style="normal" 
>
</g>

<g fill="#ffffff" fill-opacity="0.901961" stroke="none" transform="matrix(1,0,0,1,0,0)"
font-family="Courier New" font-size="16" font-weight="400" font-style="normal" 
>
</g>

<g fill="#ffffff" fill-opacity="0.901961" stroke="none" transform="matrix(0.999926,0,0,0.999926,336.65,68.8184)"
font-family="Courier New" font-size="16" font-weight="400" font-style="normal" 
>
</g>

<g fill="#ffffff" fill-opacity="0.901961" stroke="none" transform="matrix(0.999926,0,0,0.999926,336.65,68.8184)"
font-family="Courier New" font-size="16" font-weight="400" font-style="normal" 
>
</g>

<g fill="none" stroke="#000000" stroke-opacity="1" stroke-width="1" stroke-linecap="square" stroke-linejoin="bevel" transform="matrix(0.999926,0,0,0.999926,336.65,68.8184)"
font-family="Courier New" font-size="16" font-weight="400" font-style="normal" 
>
</g>

<g fill="none" stroke="#000000" stroke-opacity="1" stroke-width="1" stroke-linecap="square" stroke-linejoin="bevel" transform="matrix(0.999926,0,0,0.999926,204.035,50.9962)"
font-family="Courier New" font-size="16" font-weight="400" font-style="normal" 
>
</g>

<g fill="none" stroke="#000000" stroke-opacity="1" stroke-width="2" stroke-linecap="square" stroke-linejoin="bevel" transform="matrix(0.999926,0,0,0.999926,204.035,50.9962)"
font-family="Courier New" font-size="16" font-weight="400" font-style="normal" 
>
<path vector-effect="none" fill-rule="evenodd" d="M-183.051,-1.59266 L-125,-1.00769"/>
</g>

<g fill="#000000" fill-opacity="1" stroke="#000000" stroke-opacity="1" stroke-width="1" stroke-linecap="square" stroke-linejoin="bevel" transform="matrix(0.999926,0,0,0.999926,204.035,50.9962)"
font-family="Courier New" font-size="16" font-weight="400" font-style="normal" 
>
<path vector-effect="none" fill-rule="evenodd" d="M-125,-1.00769 L-133.609,-6.0947 L-133.71,3.90479 L-125,-1.00769"/>
</g>

<g fill="none" stroke="#000000" stroke-opacity="1" stroke-width="1" stroke-linecap="square" stroke-linejoin="bevel" transform="matrix(0.999926,0,0,0.999926,204.035,50.9962)"
font-family="Courier New" font-size="16" font-weight="400" font-style="normal" 
>
</g>

<g fill="none" stroke="#000000" stroke-opacity="1" stroke-width="1" stroke-linecap="square" stroke-linejoin="bevel" transform="matrix(0.999926,0,0,0.999926,46.0214,36.6971)"
font-family="Courier New" font-size="16" font-weight="400" font-style="normal" 
>
</g>

<g fill="none" stroke="#000000" stroke-opacity="1" stroke-width="1" stroke-linecap="square" stroke-linejoin="bevel" transform="matrix(0.999926,0,0,0.999926,46.0214,36.6971)"
font-family="Courier New" font-size="16" font-weight="400" font-style="normal" 
>
</g>

<g fill="none" stroke="#000000" stroke-opacity="1" stroke-width="1" stroke-linecap="square" stroke-linejoin="bevel" transform="matrix(0.999926,0,0,0.999926,46.0214,36.6971)"
font-family="Courier New" font-size="16" font-weight="400" font-style="normal" 
>
</g>

<g fill="none" stroke="#000000" stroke-opacity="1" stroke-width="1" stroke-linecap="square" stroke-linejoin="bevel" transform="matrix(0.999926,0,0,0.999926,46.0214,36.6971)"
font-family="Courier New" font-size="16" font-weight="400" font-style="normal" 
>
</g>

<g fill="none" stroke="#000000" stroke-opacity="1" stroke-width="1" stroke-linecap="square" stroke-linejoin="bevel" transform="matrix(1,0,0,1,0,0)"
font-family="Courier New" font-size="16" font-weight="400" font-style="normal" 
>
</g>

<g fill="none" stroke="#000000" stroke-opacity="1" stroke-width="1" stroke-linecap="square" stroke-linejoin="bevel" transform="matrix(0.999926,0,0,0.999926,46.0214,36.6971)"
font-family="Courier New" font-size="16" font-weight="400" font-style="normal" 
>
</g>

<g fill="none" stroke="#000000" stroke-opacity="1" stroke-width="1" stroke-linecap="square" stroke-linejoin="bevel" transform="matrix(0.999926,0,0,0.999926,46.0214,36.6971)"
font-family="Courier New" font-size="16" font-weight="400" font-style="normal" 
>
</g>

<g fill="none" stroke="#000000" stroke-opacity="1" stroke-width="1" stroke-linecap="square" stroke-linejoin="bevel" transform="matrix(0.999926,0,0,0.999926,46.0214,36.6971)"
font-family="Courier New" font-size="16" font-weight="400" font-style="normal" 
>
</g>

<g fill="none" stroke="#000000" stroke-opacity="1" stroke-width="1" stroke-linecap="square" stroke-linejoin="bevel" transform="matrix(1,0,0,1,0,0)"
font-family="Courier New" font-size="16" font-weight="400" font-style="normal" 
>
</g>
</g>
</svg>
