<?xml version="1.0" encoding="UTF-8" standalone="no"?>
<svg width="237.772mm" height="36.3361mm"
 viewBox="0 0 674 103"
 xmlns="http://www.w3.org/2000/svg" xmlns:xlink="http://www.w3.org/1999/xlink"  version="1.2" baseProfile="tiny">
<title>Qt SVG Document</title>
<desc>Generated with Qt</desc>
<defs>
</defs>
<g fill="none" stroke="black" stroke-width="1" fill-rule="evenodd" stroke-linecap="square" stroke-linejoin="bevel" >

<g fill="#ffffff" fill-opacity="1" stroke="none" transform="matrix(1,0,0,1,0,0)"
font-family="Courier New" font-size="16" font-weight="400" font-style="normal" 
>
<rect x="0" y="0" width="674" height="103"/>
</g>

<g fill="none" stroke="#000000" stroke-opacity="1" stroke-width="1" stroke-linecap="square" stroke-linejoin="bevel" transform="matrix(1,0,0,1,0,0)"
font-family="Courier New" font-size="16" font-weight="400" font-style="normal" 
>
</g>

<g fill="none" stroke="#000000" stroke-opacity="1" stroke-width="1" stroke-linecap="square" stroke-linejoin="bevel" transform="matrix(1,0,0,1,0,0)"
font-family="Courier New" font-size="16" font-weight="400" font-style="normal" 
>
</g>

<g fill="none" stroke="#000000" stroke-opacity="1" stroke-width="1" stroke-linecap="square" stroke-linejoin="bevel" transform="matrix(0.997906,0,0,0.997906,-253.268,-89.9272)"
font-family="Courier New" font-size="16" font-weight="400" font-style="normal" 
>
</g>

<g fill="none" stroke="#000000" stroke-opacity="1" stroke-width="1" stroke-linecap="square" stroke-linejoin="bevel" transform="matrix(0.997906,0,0,0.997906,-253.268,-89.9272)"
font-family="Courier New" font-size="16" font-weight="400" font-style="normal" 
>
</g>

<g fill="none" stroke="#000000" stroke-opacity="1" stroke-width="1" stroke-linecap="square" stroke-linejoin="bevel" transform="matrix(0.997906,0,0,0.997906,10.977,50.7343)"
font-family="Courier New" font-size="16" font-weight="400" font-style="normal" 
>
</g>

<g fill="#000000" fill-opacity="1" stroke="#000000" stroke-opacity="1" stroke-width="1" stroke-linecap="square" stroke-linejoin="bevel" transform="matrix(0.997906,0,0,0.997906,10.977,50.7343)"
font-family="Courier New" font-size="16" font-weight="400" font-style="normal" 
>
<circle cx="0" cy="0" r="10"/>
</g>

<g fill="none" stroke="#000000" stroke-opacity="1" stroke-width="1" stroke-linecap="square" stroke-linejoin="bevel" transform="matrix(0.997906,0,0,0.997906,10.977,50.7343)"
font-family="Courier New" font-size="16" font-weight="400" font-style="normal" 
>
</g>

<g fill="none" stroke="#000000" stroke-opacity="1" stroke-width="1" stroke-linecap="square" stroke-linejoin="bevel" transform="matrix(0.997906,0,0,0.997906,193.722,50.8932)"
font-family="Courier New" font-size="16" font-weight="400" font-style="normal" 
>
</g>

<g fill="none" stroke="#000000" stroke-opacity="1" stroke-width="2" stroke-linecap="square" stroke-linejoin="bevel" transform="matrix(0.997906,0,0,0.997906,193.722,50.8932)"
font-family="Courier New" font-size="16" font-weight="400" font-style="normal" 
>
<polyline fill="none" vector-effect="none" points="-100,-23 100,-23 " />
<path vector-effect="none" fill-rule="evenodd" d="M-100,-40 C-100,-45.5228 -95.5228,-50 -90,-50 L90,-50 C95.5228,-50 100,-45.5228 100,-40 L100,40 C100,45.5228 95.5228,50 90,50 L-90,50 C-95.5228,50 -100,45.5228 -100,40 L-100,-40"/>
</g>

<g fill="none" stroke="#000000" stroke-opacity="1" stroke-width="1" stroke-linecap="square" stroke-linejoin="bevel" transform="matrix(0.997906,0,0,0.997906,193.722,50.8932)"
font-family="Courier New" font-size="16" font-weight="400" font-style="normal" 
>
</g>

<g fill="none" stroke="#000000" stroke-opacity="1" stroke-width="1" stroke-linecap="square" stroke-linejoin="bevel" transform="matrix(0.997906,0,0,0.997906,93.9316,0.997906)"
font-family="Courier New" font-size="16" font-weight="400" font-style="normal" 
>
</g>

<g fill="none" stroke="#000000" stroke-opacity="1" stroke-width="1" stroke-linecap="square" stroke-linejoin="bevel" transform="matrix(0.997906,0,0,0.997906,93.9316,0.997906)"
font-family="Courier New" font-size="16" font-weight="700" font-style="normal" 
>
</g>

<g fill="none" stroke="#000000" stroke-opacity="1" stroke-width="1" stroke-linecap="square" stroke-linejoin="bevel" transform="matrix(0.997906,0,0,0.997906,93.9316,0.997906)"
font-family="Courier New" font-size="16" font-weight="700" font-style="normal" 
>
</g>

<g fill="none" stroke="#000000" stroke-opacity="1" stroke-width="1" stroke-linecap="square" stroke-linejoin="bevel" transform="matrix(0.997906,0,0,0.997906,93.9316,0.997906)"
font-family="Courier New" font-size="16" font-weight="700" font-style="normal" 
>
</g>

<g fill="none" stroke="#000000" stroke-opacity="1" stroke-width="1" stroke-linecap="square" stroke-linejoin="bevel" transform="matrix(0.997906,0,0,0.997906,93.9316,0.997906)"
font-family="Courier New" font-size="16" font-weight="700" font-style="normal" 
>
<text fill="#000000" fill-opacity="1" stroke="none" xml:space="preserve" x="56.8281" y="18" font-family="Courier New" font-size="16" font-weight="700" font-style="normal" 
 >Выключить</text>
</g>

<g fill="none" stroke="#000000" stroke-opacity="1" stroke-width="1" stroke-linecap="square" stroke-linejoin="bevel" transform="matrix(0.997906,0,0,0.997906,93.9316,0.997906)"
font-family="Courier New" font-size="16" font-weight="700" font-style="normal" 
>
</g>

<g fill="none" stroke="#000000" stroke-opacity="1" stroke-width="1" stroke-linecap="square" stroke-linejoin="bevel" transform="matrix(1,0,0,1,0,0)"
font-family="Courier New" font-size="16" font-weight="700" font-style="normal" 
>
</g>

<g fill="none" stroke="#000000" stroke-opacity="1" stroke-width="1" stroke-linecap="square" stroke-linejoin="bevel" transform="matrix(0.997906,0,0,0.997906,93.9316,0.997906)"
font-family="Courier New" font-size="16" font-weight="700" font-style="normal" 
>
</g>

<g fill="none" stroke="#000000" stroke-opacity="1" stroke-width="1" stroke-linecap="square" stroke-linejoin="bevel" transform="matrix(0.997906,0,0,0.997906,93.9316,0.997906)"
font-family="Courier New" font-size="16" font-weight="700" font-style="normal" 
>
</g>

<g fill="none" stroke="#000000" stroke-opacity="1" stroke-width="1" stroke-linecap="square" stroke-linejoin="bevel" transform="matrix(0.997906,0,0,0.997906,93.9316,0.997906)"
font-family="Courier New" font-size="16" font-weight="400" font-style="normal" 
>
</g>

<g fill="none" stroke="#000000" stroke-opacity="1" stroke-width="1" stroke-linecap="square" stroke-linejoin="bevel" transform="matrix(0.997906,0,0,0.997906,108.9,27.9414)"
font-family="Courier New" font-size="16" font-weight="400" font-style="normal" 
>
</g>

<g fill="none" stroke="#000000" stroke-opacity="1" stroke-width="1" stroke-linecap="square" stroke-linejoin="bevel" transform="matrix(0.997906,0,0,0.997906,108.9,27.9414)"
font-family="Courier New" font-size="16" font-weight="400" font-style="normal" 
>
</g>

<g fill="none" stroke="#000000" stroke-opacity="1" stroke-width="1" stroke-linecap="square" stroke-linejoin="bevel" transform="matrix(0.997906,0,0,0.997906,108.9,27.9414)"
font-family="Courier New" font-size="16" font-weight="400" font-style="normal" 
>
</g>

<g fill="none" stroke="#000000" stroke-opacity="1" stroke-width="1" stroke-linecap="square" stroke-linejoin="bevel" transform="matrix(0.997906,0,0,0.997906,108.9,27.9414)"
font-family="Courier New" font-size="16" font-weight="400" font-style="normal" 
>
</g>

<g fill="none" stroke="#000000" stroke-opacity="1" stroke-width="1" stroke-linecap="square" stroke-linejoin="bevel" transform="matrix(0.997906,0,0,0.997906,108.9,27.9414)"
font-family="Courier New" font-size="16" font-weight="400" font-style="normal" 
>
<text fill="#000000" fill-opacity="1" stroke="none" xml:space="preserve" x="4" y="18" font-family="Courier New" font-size="16" font-weight="700" font-style="normal" 
 >entry/ </text>
</g>

<g fill="none" stroke="#000000" stroke-opacity="1" stroke-width="1" stroke-linecap="square" stroke-linejoin="bevel" transform="matrix(0.997906,0,0,0.997906,108.9,27.9414)"
font-family="Courier New" font-size="16" font-weight="400" font-style="normal" 
>
<text fill="#000000" fill-opacity="1" stroke="none" xml:space="preserve" x="71.1563" y="18" font-family="Courier New" font-size="16" font-weight="400" font-style="normal" 
 >выключить</text>
</g>

<g fill="none" stroke="#000000" stroke-opacity="1" stroke-width="1" stroke-linecap="square" stroke-linejoin="bevel" transform="matrix(0.997906,0,0,0.997906,108.9,27.9414)"
font-family="Courier New" font-size="16" font-weight="400" font-style="normal" 
>
<text fill="#000000" fill-opacity="1" stroke="none" xml:space="preserve" x="4" y="35" font-family="Courier New" font-size="16" font-weight="400" font-style="normal" 
 >светодиод</text>
</g>

<g fill="none" stroke="#000000" stroke-opacity="1" stroke-width="1" stroke-linecap="square" stroke-linejoin="bevel" transform="matrix(0.997906,0,0,0.997906,108.9,27.9414)"
font-family="Courier New" font-size="16" font-weight="400" font-style="normal" 
>
</g>

<g fill="none" stroke="#000000" stroke-opacity="1" stroke-width="1" stroke-linecap="square" stroke-linejoin="bevel" transform="matrix(1,0,0,1,0,0)"
font-family="Courier New" font-size="16" font-weight="400" font-style="normal" 
>
</g>

<g fill="none" stroke="#000000" stroke-opacity="1" stroke-width="1" stroke-linecap="square" stroke-linejoin="bevel" transform="matrix(0.997906,0,0,0.997906,108.9,27.9414)"
font-family="Courier New" font-size="16" font-weight="400" font-style="normal" 
>
</g>

<g fill="none" stroke="#000000" stroke-opacity="1" stroke-width="1" stroke-linecap="square" stroke-linejoin="bevel" transform="matrix(0.997906,0,0,0.997906,108.9,27.9414)"
font-family="Courier New" font-size="16" font-weight="400" font-style="normal" 
>
</g>

<g fill="none" stroke="#000000" stroke-opacity="1" stroke-width="1" stroke-linecap="square" stroke-linejoin="bevel" transform="matrix(0.997906,0,0,0.997906,108.9,27.9414)"
font-family="Courier New" font-size="16" font-weight="400" font-style="normal" 
>
</g>

<g fill="none" stroke="#000000" stroke-opacity="1" stroke-width="1" stroke-linecap="square" stroke-linejoin="bevel" transform="matrix(0.997906,0,0,0.997906,571.714,52.1068)"
font-family="Courier New" font-size="16" font-weight="400" font-style="normal" 
>
</g>

<g fill="none" stroke="#000000" stroke-opacity="1" stroke-width="2" stroke-linecap="square" stroke-linejoin="bevel" transform="matrix(0.997906,0,0,0.997906,571.714,52.1068)"
font-family="Courier New" font-size="16" font-weight="400" font-style="normal" 
>
<polyline fill="none" vector-effect="none" points="-100,-23 100,-23 " />
<path vector-effect="none" fill-rule="evenodd" d="M-100,-40 C-100,-45.5228 -95.5228,-50 -90,-50 L90,-50 C95.5228,-50 100,-45.5228 100,-40 L100,40 C100,45.5228 95.5228,50 90,50 L-90,50 C-95.5228,50 -100,45.5228 -100,40 L-100,-40"/>
</g>

<g fill="none" stroke="#000000" stroke-opacity="1" stroke-width="1" stroke-linecap="square" stroke-linejoin="bevel" transform="matrix(0.997906,0,0,0.997906,571.714,52.1068)"
font-family="Courier New" font-size="16" font-weight="400" font-style="normal" 
>
</g>

<g fill="none" stroke="#000000" stroke-opacity="1" stroke-width="1" stroke-linecap="square" stroke-linejoin="bevel" transform="matrix(0.997906,0,0,0.997906,471.924,2.21146)"
font-family="Courier New" font-size="16" font-weight="400" font-style="normal" 
>
</g>

<g fill="none" stroke="#000000" stroke-opacity="1" stroke-width="1" stroke-linecap="square" stroke-linejoin="bevel" transform="matrix(0.997906,0,0,0.997906,471.924,2.21146)"
font-family="Courier New" font-size="16" font-weight="700" font-style="normal" 
>
</g>

<g fill="none" stroke="#000000" stroke-opacity="1" stroke-width="1" stroke-linecap="square" stroke-linejoin="bevel" transform="matrix(0.997906,0,0,0.997906,471.924,2.21146)"
font-family="Courier New" font-size="16" font-weight="700" font-style="normal" 
>
</g>

<g fill="none" stroke="#000000" stroke-opacity="1" stroke-width="1" stroke-linecap="square" stroke-linejoin="bevel" transform="matrix(0.997906,0,0,0.997906,471.924,2.21146)"
font-family="Courier New" font-size="16" font-weight="700" font-style="normal" 
>
</g>

<g fill="none" stroke="#000000" stroke-opacity="1" stroke-width="1" stroke-linecap="square" stroke-linejoin="bevel" transform="matrix(0.997906,0,0,0.997906,471.924,2.21146)"
font-family="Courier New" font-size="16" font-weight="700" font-style="normal" 
>
<text fill="#000000" fill-opacity="1" stroke="none" xml:space="preserve" x="61.625" y="18" font-family="Courier New" font-size="16" font-weight="700" font-style="normal" 
 >Включить</text>
</g>

<g fill="none" stroke="#000000" stroke-opacity="1" stroke-width="1" stroke-linecap="square" stroke-linejoin="bevel" transform="matrix(0.997906,0,0,0.997906,471.924,2.21146)"
font-family="Courier New" font-size="16" font-weight="700" font-style="normal" 
>
</g>

<g fill="none" stroke="#000000" stroke-opacity="1" stroke-width="1" stroke-linecap="square" stroke-linejoin="bevel" transform="matrix(1,0,0,1,0,0)"
font-family="Courier New" font-size="16" font-weight="700" font-style="normal" 
>
</g>

<g fill="none" stroke="#000000" stroke-opacity="1" stroke-width="1" stroke-linecap="square" stroke-linejoin="bevel" transform="matrix(0.997906,0,0,0.997906,471.924,2.21146)"
font-family="Courier New" font-size="16" font-weight="700" font-style="normal" 
>
</g>

<g fill="none" stroke="#000000" stroke-opacity="1" stroke-width="1" stroke-linecap="square" stroke-linejoin="bevel" transform="matrix(0.997906,0,0,0.997906,471.924,2.21146)"
font-family="Courier New" font-size="16" font-weight="700" font-style="normal" 
>
</g>

<g fill="none" stroke="#000000" stroke-opacity="1" stroke-width="1" stroke-linecap="square" stroke-linejoin="bevel" transform="matrix(0.997906,0,0,0.997906,471.924,2.21146)"
font-family="Courier New" font-size="16" font-weight="400" font-style="normal" 
>
</g>

<g fill="none" stroke="#000000" stroke-opacity="1" stroke-width="1" stroke-linecap="square" stroke-linejoin="bevel" transform="matrix(0.997906,0,0,0.997906,486.892,29.1549)"
font-family="Courier New" font-size="16" font-weight="400" font-style="normal" 
>
</g>

<g fill="none" stroke="#000000" stroke-opacity="1" stroke-width="1" stroke-linecap="square" stroke-linejoin="bevel" transform="matrix(0.997906,0,0,0.997906,486.892,29.1549)"
font-family="Courier New" font-size="16" font-weight="400" font-style="normal" 
>
</g>

<g fill="none" stroke="#000000" stroke-opacity="1" stroke-width="1" stroke-linecap="square" stroke-linejoin="bevel" transform="matrix(0.997906,0,0,0.997906,486.892,29.1549)"
font-family="Courier New" font-size="16" font-weight="400" font-style="normal" 
>
</g>

<g fill="none" stroke="#000000" stroke-opacity="1" stroke-width="1" stroke-linecap="square" stroke-linejoin="bevel" transform="matrix(0.997906,0,0,0.997906,486.892,29.1549)"
font-family="Courier New" font-size="16" font-weight="400" font-style="normal" 
>
</g>

<g fill="none" stroke="#000000" stroke-opacity="1" stroke-width="1" stroke-linecap="square" stroke-linejoin="bevel" transform="matrix(0.997906,0,0,0.997906,486.892,29.1549)"
font-family="Courier New" font-size="16" font-weight="400" font-style="normal" 
>
<text fill="#000000" fill-opacity="1" stroke="none" xml:space="preserve" x="4" y="18" font-family="Courier New" font-size="16" font-weight="700" font-style="normal" 
 >entry/ </text>
</g>

<g fill="none" stroke="#000000" stroke-opacity="1" stroke-width="1" stroke-linecap="square" stroke-linejoin="bevel" transform="matrix(0.997906,0,0,0.997906,486.892,29.1549)"
font-family="Courier New" font-size="16" font-weight="400" font-style="normal" 
>
<text fill="#000000" fill-opacity="1" stroke="none" xml:space="preserve" x="71.1563" y="18" font-family="Courier New" font-size="16" font-weight="400" font-style="normal" 
 >включить</text>
</g>

<g fill="none" stroke="#000000" stroke-opacity="1" stroke-width="1" stroke-linecap="square" stroke-linejoin="bevel" transform="matrix(0.997906,0,0,0.997906,486.892,29.1549)"
font-family="Courier New" font-size="16" font-weight="400" font-style="normal" 
>
<text fill="#000000" fill-opacity="1" stroke="none" xml:space="preserve" x="4" y="35" font-family="Courier New" font-size="16" font-weight="400" font-style="normal" 
 >светодиод</text>
</g>

<g fill="none" stroke="#000000" stroke-opacity="1" stroke-width="1" stroke-linecap="square" stroke-linejoin="bevel" transform="matrix(0.997906,0,0,0.997906,486.892,29.1549)"
font-family="Courier New" font-size="16" font-weight="400" font-style="normal" 
>
</g>

<g fill="none" stroke="#000000" stroke-opacity="1" stroke-width="1" stroke-linecap="square" stroke-linejoin="bevel" transform="matrix(1,0,0,1,0,0)"
font-family="Courier New" font-size="16" font-weight="400" font-style="normal" 
>
</g>

<g fill="none" stroke="#000000" stroke-opacity="1" stroke-width="1" stroke-linecap="square" stroke-linejoin="bevel" transform="matrix(0.997906,0,0,0.997906,486.892,29.1549)"
font-family="Courier New" font-size="16" font-weight="400" font-style="normal" 
>
</g>

<g fill="none" stroke="#000000" stroke-opacity="1" stroke-width="1" stroke-linecap="square" stroke-linejoin="bevel" transform="matrix(0.997906,0,0,0.997906,486.892,29.1549)"
font-family="Courier New" font-size="16" font-weight="400" font-style="normal" 
>
</g>

<g fill="none" stroke="#000000" stroke-opacity="1" stroke-width="1" stroke-linecap="square" stroke-linejoin="bevel" transform="matrix(0.997906,0,0,0.997906,486.892,29.1549)"
font-family="Courier New" font-size="16" font-weight="400" font-style="normal" 
>
</g>

<g fill="none" stroke="#000000" stroke-opacity="1" stroke-width="1" stroke-linecap="square" stroke-linejoin="bevel" transform="matrix(0.997906,0,0,0.997906,-253.268,-89.9272)"
font-family="Courier New" font-size="16" font-weight="400" font-style="normal" 
>
</g>

<g fill="none" stroke="#000000" stroke-opacity="1" stroke-width="2" stroke-linecap="square" stroke-linejoin="bevel" transform="matrix(0.997906,0,0,0.997906,-253.268,-89.9272)"
font-family="Courier New" font-size="16" font-weight="400" font-style="normal" 
>
<path vector-effect="none" fill-rule="evenodd" d="M547.928,110.354 L726.713,110.354"/>
</g>

<g fill="#000000" fill-opacity="1" stroke="#000000" stroke-opacity="1" stroke-width="1" stroke-linecap="square" stroke-linejoin="bevel" transform="matrix(0.997906,0,0,0.997906,-253.268,-89.9272)"
font-family="Courier New" font-size="16" font-weight="400" font-style="normal" 
>
<path vector-effect="none" fill-rule="evenodd" d="M726.713,110.354 L718.053,105.354 L718.053,115.354 L726.713,110.354"/>
</g>

<g fill="none" stroke="#000000" stroke-opacity="1" stroke-width="1" stroke-linecap="square" stroke-linejoin="bevel" transform="matrix(0.997906,0,0,0.997906,-253.268,-89.9272)"
font-family="Courier New" font-size="16" font-weight="400" font-style="normal" 
>
</g>

<g fill="none" stroke="#000000" stroke-opacity="1" stroke-width="1" stroke-linecap="square" stroke-linejoin="bevel" transform="matrix(0.997906,0,0,0.997906,335.657,7.25095)"
font-family="Courier New" font-size="16" font-weight="400" font-style="normal" 
>
</g>

<g fill="#ffffff" fill-opacity="0.901961" stroke="none" transform="matrix(0.997906,0,0,0.997906,335.657,7.25095)"
font-family="Courier New" font-size="16" font-weight="400" font-style="normal" 
>
<rect x="0" y="0" width="94.625" height="26"/>
</g>

<g fill="#ffffff" fill-opacity="0.901961" stroke="none" transform="matrix(0.997906,0,0,0.997906,335.657,7.25095)"
font-family="Courier New" font-size="16" font-weight="400" font-style="normal" 
>
</g>

<g fill="#ffffff" fill-opacity="0.901961" stroke="none" transform="matrix(0.997906,0,0,0.997906,335.657,7.25095)"
font-family="Courier New" font-size="16" font-weight="400" font-style="normal" 
>
</g>

<g fill="#ffffff" fill-opacity="0.901961" stroke="#000000" stroke-opacity="1" stroke-width="1" stroke-linecap="square" stroke-linejoin="bevel" transform="matrix(0.997906,0,0,0.997906,335.657,7.25095)"
font-family="Courier New" font-size="16" font-weight="400" font-style="normal" 
>
<text fill="#000000" fill-opacity="1" stroke="none" xml:space="preserve" x="4.14063" y="17" font-family="Courier New" font-size="16" font-weight="400" font-style="normal" 
 >ТАЙМЕР_1С</text>
</g>

<g fill="#ffffff" fill-opacity="0.901961" stroke="none" transform="matrix(0.997906,0,0,0.997906,335.657,7.25095)"
font-family="Courier New" font-size="16" font-weight="400" font-style="normal" 
>
</g>

<g fill="#ffffff" fill-opacity="0.901961" stroke="none" transform="matrix(1,0,0,1,0,0)"
font-family="Courier New" font-size="16" font-weight="400" font-style="normal" 
>
</g>

<g fill="#ffffff" fill-opacity="0.901961" stroke="none" transform="matrix(0.997906,0,0,0.997906,335.657,7.25095)"
font-family="Courier New" font-size="16" font-weight="400" font-style="normal" 
>
</g>

<g fill="#ffffff" fill-opacity="0.901961" stroke="none" transform="matrix(0.997906,0,0,0.997906,335.657,7.25095)"
font-family="Courier New" font-size="16" font-weight="400" font-style="normal" 
>
</g>

<g fill="none" stroke="#000000" stroke-opacity="1" stroke-width="1" stroke-linecap="square" stroke-linejoin="bevel" transform="matrix(0.997906,0,0,0.997906,335.657,7.25095)"
font-family="Courier New" font-size="16" font-weight="400" font-style="normal" 
>
</g>

<g fill="none" stroke="#000000" stroke-opacity="1" stroke-width="1" stroke-linecap="square" stroke-linejoin="bevel" transform="matrix(0.997906,0,0,0.997906,-253.268,-89.9272)"
font-family="Courier New" font-size="16" font-weight="400" font-style="normal" 
>
</g>

<g fill="none" stroke="#000000" stroke-opacity="1" stroke-width="2" stroke-linecap="square" stroke-linejoin="bevel" transform="matrix(0.997906,0,0,0.997906,-253.268,-89.9272)"
font-family="Courier New" font-size="16" font-weight="400" font-style="normal" 
>
<path vector-effect="none" fill-rule="evenodd" d="M726.713,171.045 L547.928,171.045"/>
</g>

<g fill="#000000" fill-opacity="1" stroke="#000000" stroke-opacity="1" stroke-width="1" stroke-linecap="square" stroke-linejoin="bevel" transform="matrix(0.997906,0,0,0.997906,-253.268,-89.9272)"
font-family="Courier New" font-size="16" font-weight="400" font-style="normal" 
>
<path vector-effect="none" fill-rule="evenodd" d="M547.928,171.045 L556.588,176.045 L556.588,166.045 L547.928,171.045"/>
</g>

<g fill="none" stroke="#000000" stroke-opacity="1" stroke-width="1" stroke-linecap="square" stroke-linejoin="bevel" transform="matrix(0.997906,0,0,0.997906,-253.268,-89.9272)"
font-family="Courier New" font-size="16" font-weight="400" font-style="normal" 
>
</g>

<g fill="none" stroke="#000000" stroke-opacity="1" stroke-width="1" stroke-linecap="square" stroke-linejoin="bevel" transform="matrix(0.997906,0,0,0.997906,336.199,68.0879)"
font-family="Courier New" font-size="16" font-weight="400" font-style="normal" 
>
</g>

<g fill="#ffffff" fill-opacity="0.901961" stroke="none" transform="matrix(0.997906,0,0,0.997906,336.199,68.0879)"
font-family="Courier New" font-size="16" font-weight="400" font-style="normal" 
>
<rect x="0" y="0" width="94.625" height="26"/>
</g>

<g fill="#ffffff" fill-opacity="0.901961" stroke="none" transform="matrix(0.997906,0,0,0.997906,336.199,68.0879)"
font-family="Courier New" font-size="16" font-weight="400" font-style="normal" 
>
</g>

<g fill="#ffffff" fill-opacity="0.901961" stroke="none" transform="matrix(0.997906,0,0,0.997906,336.199,68.0879)"
font-family="Courier New" font-size="16" font-weight="400" font-style="normal" 
>
</g>

<g fill="#ffffff" fill-opacity="0.901961" stroke="#000000" stroke-opacity="1" stroke-width="1" stroke-linecap="square" stroke-linejoin="bevel" transform="matrix(0.997906,0,0,0.997906,336.199,68.0879)"
font-family="Courier New" font-size="16" font-weight="400" font-style="normal" 
>
<text fill="#000000" fill-opacity="1" stroke="none" xml:space="preserve" x="4.14063" y="17" font-family="Courier New" font-size="16" font-weight="400" font-style="normal" 
 >ТАЙМЕР_1С</text>
</g>

<g fill="#ffffff" fill-opacity="0.901961" stroke="none" transform="matrix(0.997906,0,0,0.997906,336.199,68.0879)"
font-family="Courier New" font-size="16" font-weight="400" font-style="normal" 
>
</g>

<g fill="#ffffff" fill-opacity="0.901961" stroke="none" transform="matrix(1,0,0,1,0,0)"
font-family="Courier New" font-size="16" font-weight="400" font-style="normal" 
>
</g>

<g fill="#ffffff" fill-opacity="0.901961" stroke="none" transform="matrix(0.997906,0,0,0.997906,336.199,68.0879)"
font-family="Courier New" font-size="16" font-weight="400" font-style="normal" 
>
</g>

<g fill="#ffffff" fill-opacity="0.901961" stroke="none" transform="matrix(0.997906,0,0,0.997906,336.199,68.0879)"
font-family="Courier New" font-size="16" font-weight="400" font-style="normal" 
>
</g>

<g fill="none" stroke="#000000" stroke-opacity="1" stroke-width="1" stroke-linecap="square" stroke-linejoin="bevel" transform="matrix(0.997906,0,0,0.997906,336.199,68.0879)"
font-family="Courier New" font-size="16" font-weight="400" font-style="normal" 
>
</g>

<g fill="none" stroke="#000000" stroke-opacity="1" stroke-width="1" stroke-linecap="square" stroke-linejoin="bevel" transform="matrix(0.997906,0,0,0.997906,-253.268,-89.9272)"
font-family="Courier New" font-size="16" font-weight="400" font-style="normal" 
>
</g>

<g fill="none" stroke="#000000" stroke-opacity="1" stroke-width="2" stroke-linecap="square" stroke-linejoin="bevel" transform="matrix(0.997906,0,0,0.997906,-253.268,-89.9272)"
font-family="Courier New" font-size="16" font-weight="400" font-style="normal" 
>
<path vector-effect="none" fill-rule="evenodd" d="M274.8,140.965 L347.928,141.029"/>
</g>

<g fill="#000000" fill-opacity="1" stroke="#000000" stroke-opacity="1" stroke-width="1" stroke-linecap="square" stroke-linejoin="bevel" transform="matrix(0.997906,0,0,0.997906,-253.268,-89.9272)"
font-family="Courier New" font-size="16" font-weight="400" font-style="normal" 
>
<path vector-effect="none" fill-rule="evenodd" d="M347.928,141.029 L339.272,136.021 L339.264,146.021 L347.928,141.029"/>
</g>

<g fill="none" stroke="#000000" stroke-opacity="1" stroke-width="1" stroke-linecap="square" stroke-linejoin="bevel" transform="matrix(0.997906,0,0,0.997906,-253.268,-89.9272)"
font-family="Courier New" font-size="16" font-weight="400" font-style="normal" 
>
</g>

<g fill="none" stroke="#000000" stroke-opacity="1" stroke-width="1" stroke-linecap="square" stroke-linejoin="bevel" transform="matrix(0.997906,0,0,0.997906,53.4522,37.802)"
font-family="Courier New" font-size="16" font-weight="400" font-style="normal" 
>
</g>

<g fill="none" stroke="#000000" stroke-opacity="1" stroke-width="1" stroke-linecap="square" stroke-linejoin="bevel" transform="matrix(0.997906,0,0,0.997906,53.4522,37.802)"
font-family="Courier New" font-size="16" font-weight="400" font-style="normal" 
>
</g>

<g fill="none" stroke="#000000" stroke-opacity="1" stroke-width="1" stroke-linecap="square" stroke-linejoin="bevel" transform="matrix(0.997906,0,0,0.997906,53.4522,37.802)"
font-family="Courier New" font-size="16" font-weight="400" font-style="normal" 
>
</g>

<g fill="none" stroke="#000000" stroke-opacity="1" stroke-width="1" stroke-linecap="square" stroke-linejoin="bevel" transform="matrix(0.997906,0,0,0.997906,53.4522,37.802)"
font-family="Courier New" font-size="16" font-weight="400" font-style="normal" 
>
</g>

<g fill="none" stroke="#000000" stroke-opacity="1" stroke-width="1" stroke-linecap="square" stroke-linejoin="bevel" transform="matrix(1,0,0,1,0,0)"
font-family="Courier New" font-size="16" font-weight="400" font-style="normal" 
>
</g>

<g fill="none" stroke="#000000" stroke-opacity="1" stroke-width="1" stroke-linecap="square" stroke-linejoin="bevel" transform="matrix(0.997906,0,0,0.997906,53.4522,37.802)"
font-family="Courier New" font-size="16" font-weight="400" font-style="normal" 
>
</g>

<g fill="none" stroke="#000000" stroke-opacity="1" stroke-width="1" stroke-linecap="square" stroke-linejoin="bevel" transform="matrix(0.997906,0,0,0.997906,53.4522,37.802)"
font-family="Courier New" font-size="16" font-weight="400" font-style="normal" 
>
</g>

<g fill="none" stroke="#000000" stroke-opacity="1" stroke-width="1" stroke-linecap="square" stroke-linejoin="bevel" transform="matrix(0.997906,0,0,0.997906,53.4522,37.802)"
font-family="Courier New" font-size="16" font-weight="400" font-style="normal" 
>
</g>

<g fill="none" stroke="#000000" stroke-opacity="1" stroke-width="1" stroke-linecap="square" stroke-linejoin="bevel" transform="matrix(1,0,0,1,0,0)"
font-family="Courier New" font-size="16" font-weight="400" font-style="normal" 
>
</g>
</g>
</svg>
